<?xml version="1.0" encoding="UTF-8"?>
<!DOCTYPE svg PUBLIC "-//W3C//DTD SVG 1.1//EN" "http://www.w3.org/Graphics/SVG/1.1/DTD/svg11.dtd">
<!-- Creator: CorelDRAW X6 -->
<svg xmlns="http://www.w3.org/2000/svg" xml:space="preserve" width="353px" height="500px" version="1.1" style="shape-rendering:geometricPrecision; text-rendering:geometricPrecision; image-rendering:optimizeQuality; fill-rule:evenodd; clip-rule:evenodd"
viewBox="0 0 353 499"
 xmlns:xlink="http://www.w3.org/1999/xlink">
 <defs>
  <style type="text/css">
   <![CDATA[
    .fil0 {fill:#108ee9}
   ]]>
  </style>
   <clipPath id="id0">
    <rect x="37" y="56" width="296" height="296"/>
   </clipPath>
 </defs>
 <g id="layer_x0020_1">
  <metadata id="CorelCorpID_0Corel-Layer"/>
  <g id="_264977728">
   <path class="fil0" d="M98 134c0,12 0,19 6,30l6 11c4,7 9,13 15,19l11 12c2,2 4,4 6,6 4,4 8,7 12,11 2,2 4,3 6,5l5 4c0,0 0,0 1,1 16,14 36,24 54,36 7,5 15,8 21,12 7,5 15,9 21,15l3 3c0,0 0,0 0,0 1,2 1,-1 0,2 0,1 -1,3 -2,4 -8,10 -41,4 -51,4 -5,0 -19,-1 -12,8 3,4 7,7 11,10 6,4 11,6 18,9 13,5 30,10 45,10 15,0 27,0 40,-7 8,-5 12,-8 16,-16 5,-9 4,-21 0,-30 0,-1 0,-1 -1,-2 -3,-7 -8,-12 -13,-18 -8,-9 -17,-17 -26,-25l-8 -7c-1,-1 -1,0 -1,-1l-29 -27c-8,-10 -17,-19 -23,-30l-3 -9c-1,-6 5,-15 8,-19l3 -4c6,-9 12,-16 19,-24 12,-14 26,-29 30,-47 4,-16 -14,-21 -27,-23 -14,-2 -30,-1 -43,1 -13,2 -26,5 -39,9 -2,1 -3,1 -5,2l-15 6c-11,5 -21,10 -31,17 -1,1 -3,2 -4,3 -1,1 -1,1 -2,2 0,0 0,0 -1,1 0,0 0,0 0,0 -10,8 -21,23 -21,36z"/>
   <path class="fil0" d="M37 213c0,4 4,9 6,11 3,3 7,5 11,7 2,1 3,2 6,3 2,1 4,2 6,3 12,5 57,18 70,18 6,0 10,1 14,-1 4,-1 4,-1 4,-5 0,-2 -2,-4 -3,-6l-14 -11c-9,-6 -18,-11 -26,-16l-10 -6c-2,-1 -4,-2 -6,-3 -4,-2 -8,-3 -12,-5 -12,-5 -33,-5 -42,6 -1,1 -3,5 -3,6z"/>
   <path class="fil0" d="M43 265c0,4 0,6 5,10 2,1 5,3 8,4 13,4 36,4 50,2 6,-1 12,-1 18,-2 6,-1 11,-2 17,-3 3,-1 5,-1 7,-2 14,-6 -2,-11 -9,-14 -8,-3 -37,-7 -49,-9 -11,-2 -26,-2 -36,2 -3,2 -9,7 -9,11z"/>
   <path class="fil0" d="M54 302c0,6 1,10 7,13 2,1 3,2 6,2 1,0 7,1 8,1 19,-1 56,-12 72,-23 4,-3 4,-3 4,-7 0,-6 -23,-5 -30,-5 -5,0 -35,2 -40,3 -7,1 -9,1 -17,5 -4,2 -10,6 -10,11z"/>
   <path class="fil0" d="M80 337c0,8 9,14 15,14 14,0 20,-3 32,-10 8,-4 15,-9 21,-15 5,-4 11,-9 11,-15 0,-8 -27,-1 -30,0 -10,3 -49,12 -49,25z"/>
  </g>
  <g id="_264975880">
   <path class="fil0" d="M98 134c0,12 0,19 6,30l6 11c4,7 9,13 15,19l11 12c2,2 4,4 6,6 4,4 8,7 12,11 2,2 4,3 6,5l5 4c0,0 0,0 1,1 16,14 36,24 54,36 7,5 15,8 21,12 7,5 15,9 21,15l3 3c0,0 0,0 0,0 1,2 1,-1 0,2 0,1 -1,3 -2,4 -8,10 -41,4 -51,4 -5,0 -19,-1 -12,8 3,4 7,7 11,10 6,4 11,6 18,9 13,5 30,10 45,10 15,0 27,0 40,-7 8,-5 12,-8 16,-16 5,-9 4,-21 0,-30 0,-1 0,-1 -1,-2 -3,-7 -8,-12 -13,-18 -8,-9 -17,-17 -26,-25l-8 -7c-1,-1 -1,0 -1,-1l-29 -27c-8,-10 -17,-19 -23,-30l-3 -9c-1,-6 5,-15 8,-19l3 -4c6,-9 12,-16 19,-24 12,-14 26,-29 30,-47 4,-16 -14,-21 -27,-23 -14,-2 -30,-1 -43,1 -13,2 -26,5 -39,9 -2,1 -3,1 -5,2l-15 6c-11,5 -21,10 -31,17 -1,1 -3,2 -4,3 -1,1 -1,1 -2,2 0,0 0,0 -1,1 0,0 0,0 0,0 -10,8 -21,23 -21,36z"/>
   <path class="fil0" d="M37 213c0,4 4,9 6,11 3,3 7,5 11,7 2,1 3,2 6,3 2,1 4,2 6,3 12,5 57,18 70,18 6,0 10,1 14,-1 4,-1 4,-1 4,-5 0,-2 -2,-4 -3,-6l-14 -11c-9,-6 -18,-11 -26,-16l-10 -6c-2,-1 -4,-2 -6,-3 -4,-2 -8,-3 -12,-5 -12,-5 -33,-5 -42,6 -1,1 -3,5 -3,6z"/>
   <path class="fil0" d="M43 265c0,4 0,6 5,10 2,1 5,3 8,4 13,4 36,4 50,2 6,-1 12,-1 18,-2 6,-1 11,-2 17,-3 3,-1 5,-1 7,-2 14,-6 -2,-11 -9,-14 -8,-3 -37,-7 -49,-9 -11,-2 -26,-2 -36,2 -3,2 -9,7 -9,11z"/>
   <path class="fil0" d="M54 302c0,6 1,10 7,13 2,1 3,2 6,2 1,0 7,1 8,1 19,-1 56,-12 72,-23 4,-3 4,-3 4,-7 0,-6 -23,-5 -30,-5 -5,0 -35,2 -40,3 -7,1 -9,1 -17,5 -4,2 -10,6 -10,11z"/>
   <path class="fil0" d="M80 337c0,8 9,14 15,14 14,0 20,-3 32,-10 8,-4 15,-9 21,-15 5,-4 11,-9 11,-15 0,-8 -27,-1 -30,0 -10,3 -49,12 -49,25z"/>
  </g>
 </g>
</svg>
