<svg xmlns="http://www.w3.org/2000/svg" width="533.3" height="31.39">
  <path fill="#333" d="M56.38 27.94c0 .96-.34 1.77-1 2.44-.68.68-1.5 1-2.46 1s-1.77-.32-2.45-1c-.67-.67-1-1.48-1-2.44v-8.8H6.9v8.8c0 .96-.32 1.77-1 2.44-.67.68-1.48 1-2.44 1s-1.78-.32-2.45-1c-.6-.67-1-1.48-1-2.44V3.46C0 2.5.4 1.68 1 1c.7-.65 1.5-1 2.47-1S5.23.34 5.9 1c.68.68 1 1.5 1 2.46v8.78h42.56V3.46c0-.96.34-1.78 1-2.45.7-.6 1.5-1 2.46-1s1.78.4 2.45 1c.67.7 1 1.5 1 2.5zm14.1 0c0 .96-.34 1.77-1 2.44-.68.68-1.5 1-2.46 1s-1.78-.32-2.45-1c-.67-.67-1-1.48-1-2.44V3.46c0-.96.33-1.78 1-2.45.67-.6 1.5-1 2.45-1s1.78.4 2.45 1c.67.7 1 1.5 1 2.5zM130.62 0c.96 0 1.77.34 2.45 1 .67.68 1 1.5 1 2.46s-.33 1.77-1 2.44c-.68.68-1.5 1-2.45 1H109.3v21.04c0 .96-.33 1.77-1 2.44-.67.68-1.5 1-2.45 1-.96 0-1.78-.32-2.45-1-.67-.67-1-1.48-1-2.44V6.9H80.8c-.87-.08-1.6-.46-2.24-1.1-.62-.65-.93-1.43-.93-2.34 0-.96.33-1.78 1-2.45.68-.6 1.5-1 2.45-1zm10.7 15.7c0-1.83.3-3.66.9-5.5a16.84 16.84 0 0 1 2.64-5.05 14.34 14.34 0 0 1 4.17-3.7C150.67.47 152.5 0 154.58 0h41.97c.96 0 1.78.34 2.45 1 .67.68 1 1.5 1 2.46s-.33 1.77-1 2.44c-.67.68-1.5 1-2.45 1H156.1c-1.7 0-3.05.3-4.08.9-1.03.6-1.85 1.34-2.45 2.2a7.7 7.7 0 0 0-1.22 2.85c-.22 1.04-.33 1.98-.33 2.85 0 .86.1 1.8.33 2.84a7.7 7.7 0 0 0 1.22 2.84c.6.87 1.42 1.6 2.45 2.2 1.03.6 2.4.9 4.07.9h40.4c.9 0 1.8.34 2.4 1 .6.68 1 1.5 1 2.46s-.4 1.77-1 2.44c-.7.68-1.5 1-2.5 1h-42.7c-2 0-3.7-.47-5.3-1.43a13.73 13.73 0 0 1-4-3.7c-1.1-1.52-1.9-3.2-2.5-5.08-.57-1.87-.86-3.7-.86-5.47zm122.2 12.24c0 .96-.34 1.77-1 2.44-.68.68-1.5 1-2.46 1s-1.77-.32-2.45-1c-.6-.67-1-1.48-1-2.44v-8.8h-42.5v8.8c0 .96-.3 1.77-1 2.44-.6.68-1.5 1-2.4 1-.9 0-1.7-.32-2.4-1-.6-.67-1-1.48-1-2.44V3.46c0-.96.4-1.78 1-2.45.7-.6 1.5-1 2.5-1s1.8.4 2.5 1c.7.7 1 1.5 1 2.5v8.8h42.6V3.5c0-.96.35-1.78 1-2.45.7-.65 1.5-1 2.47-1s1.8.35 2.47 1c.65.7 1 1.5 1 2.47zm63.56 0c0 .96-.34 1.77-1 2.44-.68.68-1.5 1-2.46 1s-1.77-.32-2.44-1c-.68-.67-1-1.48-1-2.44v-8.8H277.6v8.8c0 .96-.34 1.77-1 2.44-.68.68-1.5 1-2.46 1s-1.78-.32-2.45-1c-.7-.67-1-1.48-1-2.44V3.46c0-.96.3-1.78 1-2.45.6-.6 1.5-1 2.4-1s1.8.4 2.4 1c.6.7 1 1.5 1 2.5v8.8H320V3.5c0-.96.33-1.78 1-2.45.7-.65 1.5-1 2.45-1s1.8.35 2.45 1c.7.7 1 1.5 1 2.47zm14.1 0c0 .96-.34 1.77-1 2.44-.68.68-1.5 1-2.46 1s-1.77-.32-2.45-1c-.67-.67-1-1.48-1-2.44V3.46c0-.96.33-1.78 1-2.45.68-.6 1.5-1 2.45-1s1.78.4 2.45 1c.67.7 1 1.5 1 2.5zm14-15.7h16.62c2.5 0 4.95-.32 7.35-.97 2.4-.65 4.74-1.5 7.02-2.56a54.16 54.16 0 0 0 6.55-3.6 131.95 131.95 0 0 0 6-4.1c.82-.6 1.64-1 2.46-1 .96 0 1.77.4 2.45 1 .67.7 1 1.5 1 2.5 0 .7-.2 1.3-.57 1.8a6.53 6.53 0 0 1-1.37 1.4l-3.6 2.7a58.63 58.63 0 0 1-3.5 2.4 72.84 72.84 0 0 1-3.6 2.1 84.98 84.98 0 0 1-4 2c1.4.7 2.7 1.4 3.9 2a72.9 72.9 0 0 1 3.5 2.1c1.12.78 2.3 1.5 3.43 2.4l3.6 2.7c.5.38.96.83 1.35 1.33.36.5.55 1.1.55 1.8 0 .96-.3 1.77-1 2.44-.65.68-1.5 1-2.42 1-.8 0-1.62-.32-2.43-1a123.13 123.13 0 0 0-6.06-4.17 55.54 55.54 0 0 0-6.5-3.6 40.44 40.44 0 0 0-6.97-2.5 29.07 29.07 0 0 0-7.37-.97h-16.5V28c0 .94-.35 1.75-1 2.42-.7.68-1.48 1-2.4 1-.96 0-1.77-.32-2.44-1-.7-.67-1-1.5-1-2.44V3.46c0-.96.3-1.78 1-2.45.64-.6 1.43-1 2.34-1 1 0 1.8.4 2.48 1 .66.7 1 1.5 1 2.5zm56.7-8.78c0-.96.35-1.78 1.02-2.45.67-.6 1.5-1 2.45-1h51.04c.9 0 1.7.4 2.4 1 .6.7 1 1.5 1 2.5s-.4 1.8-1 2.5c-.7.7-1.5 1-2.5 1h-51c-1 0-1.8-.3-2.5-1-.7-.6-1-1.4-1-2.4zm8.8 27.93c-1.06 0-2.12-.3-3.17-.7a8.97 8.97 0 0 1-2.8-1.9c-.8-.9-1.5-1.8-2-3s-.8-2.5-.8-3.9v-6.4c0-1.3.4-2.2 1.2-2.6.8-.5 1.9-.7 3.5-.7h48.3c1 0 1.8.3 2.5 1s1 1.5 1 2.4-.3 1.7-1 2.4c-.6.7-1.5 1-2.4 1h-46v3.5c0 .44.2.9.6 1.22.4.34 1 .52 1.7.52h45.38c.94 0 1.75.32 2.4 1 .7.66 1 1.5 1 2.44s-.3 1.77-1 2.44c-.66.67-1.5 1-2.43 1zM523.3 19.1c1.3.82 2.6 1.7 3.96 2.63a82.03 82.03 0 0 1 4.1 3.06c.53.4.98.8 1.37 1.3.38.5.57 1.1.57 1.7 0 .9-.33 1.7-1 2.4-.68.7-1.5 1-2.45 1-.82 0-1.63-.3-2.45-1a134.16 134.16 0 0 0-6.05-4.2 54.66 54.66 0 0 0-6.44-3.6A39.36 39.36 0 0 0 508 20a29.64 29.64 0 0 0-7.5-.95h-14.3a2.62 2.62 0 0 0-1.6.87c-.4.5-.6 1.1-.6 1.8v6.1c0 .97-.32 1.78-1.02 2.45-.7.67-1.5 1-2.4 1-.97 0-1.8-.33-2.46-1-.66-.68-1-1.5-1-2.45V21c0-1.2.23-2.33.68-3.4a9.05 9.05 0 0 1 1.86-2.8 8.4 8.4 0 0 1 2.75-1.9c1.1-.44 2.2-.67 3.5-.67H524c.73 0 1.37-.25 1.9-.76.57-.5.85-1.14.85-1.9 0-.72-.27-1.35-.82-1.88-.54-.6-1.2-.8-1.9-.8h-43.5c-.94 0-1.76-.4-2.43-1-.66-.7-1-1.5-1-2.5s.34-1.8 1-2.5c.68-.7 1.5-1 2.46-1h43.12c1.35 0 2.6.2 3.78.7a10.1 10.1 0 0 1 3.1 2 9.47 9.47 0 0 1 2.1 3c.5 1.15.75 2.4.75 3.74 0 1.32-.2 2.6-.7 3.72a9.46 9.46 0 0 1-2.1 3 10.12 10.12 0 0 1-3.1 2.05 9.5 9.5 0 0 1-3.7.73z" style="-inkscape-font-specification:Space Age" font-family="Space Age" font-size="72" font-weight="400" letter-spacing="0" word-spacing="0"/>
</svg>
