<svg xmlns="http://www.w3.org/2000/svg" width="533.375" height="31.392" version="1.2">
    <g font-weight="400" letter-spacing="0" style="text-align:start;line-height:125%;-inkscape-font-specification:Borg Nine" word-spacing="0">
        <path fill="#d9d9d9" d="M56.376 27.936c0 .959-.337 1.775-1.009 2.447-.672.673-1.488 1.009-2.448 1.009s-1.775-.336-2.447-1.009c-.673-.672-1.009-1.488-1.009-2.447v-1.657c-.048-1.44-.384-2.628-1.007-3.564-.624-.936-1.367-1.668-2.232-2.195a8.36 8.36 0 0 0-2.808-1.08c-1.008-.193-1.92-.29-2.735-.29H15.696a18.23 18.23 0 0 1-4.5-.575 17.079 17.079 0 0 1-4.285-1.727v11.088c0 .959-.336 1.775-1.008 2.447-.671.673-1.488 1.009-2.448 1.009s-1.776-.336-2.447-1.009C.336 29.711 0 28.895 0 27.936V3.456c0-.96.336-1.776 1.008-2.448C1.679.336 2.495 0 3.455 0s1.777.336 2.448 1.008c.672.672 1.008 1.488 1.008 2.448V4.68c0 1.536.3 2.796.9 3.78.601.984 1.345 1.752 2.233 2.304a8.862 8.862 0 0 0 2.843 1.152c1.008.216 1.944.325 2.808.324H40.68c1.487 0 2.987.192 4.5.576 1.512.384 2.94.96 4.283 1.727V3.456c0-.96.336-1.776 1.009-2.448C51.144.336 51.96 0 52.919 0c.96 0 1.776.336 2.448 1.008.672.672 1.009 1.488 1.009 2.448zm14.17 0c0 .959-.336 1.775-1.008 2.447-.671.673-1.488 1.009-2.448 1.009s-1.776-.336-2.448-1.009c-.673-.672-1.009-1.488-1.009-2.447V3.456c0-.96.336-1.776 1.009-2.448C65.314.336 66.13 0 67.09 0s1.777.336 2.448 1.008c.672.672 1.008 1.488 1.008 2.448zM130.69 0c.959 0 1.775.336 2.447 1.008.672.672 1.009 1.488 1.009 2.448 0 .912-.312 1.692-.936 2.34-.624.647-1.369 1.02-2.233 1.116h-14.473c-1.44.095-2.628.443-3.564 1.044-.936.6-1.668 1.332-2.196 2.196a8.315 8.315 0 0 0-1.08 2.807c-.192 1.008-.288 1.92-.288 2.738v12.239c0 .959-.336 1.775-1.008 2.447-.671.673-1.487 1.009-2.448 1.009-.96 0-1.775-.336-2.447-1.009-.672-.672-1.008-1.488-1.007-2.447v-12.24c0-1.487.191-2.988.575-4.5.384-1.513.96-2.94 1.727-4.284H81.152c-.96 0-1.775-.336-2.448-1.008-.672-.673-1.008-1.489-1.008-2.448 0-.96.336-1.776 1.008-2.448C79.377.336 80.193 0 81.152 0zm10.709 15.697c0-1.825.3-3.662.9-5.51a16.845 16.845 0 0 1 2.629-5.04 14.341 14.341 0 0 1 4.176-3.707c1.632-.96 3.48-1.44 5.544-1.44h41.975c.96 0 1.777.336 2.449 1.008.671.672 1.007 1.488 1.007 2.448s-.336 1.775-1.007 2.448c-.672.672-1.488 1.008-2.45 1.008H156.16c-1.68 0-3.036.3-4.068.9-1.032.6-1.848 1.332-2.448 2.196a7.71 7.71 0 0 0-1.224 2.844c-.216 1.032-.324 1.98-.324 2.845 0 .863.108 1.81.324 2.842a7.709 7.709 0 0 0 1.224 2.844c.6.865 1.416 1.597 2.448 2.196 1.032.6 2.388.9 4.068.9h40.463c.96 0 1.777.336 2.449 1.009.671.672 1.007 1.488 1.007 2.448 0 .959-.336 1.775-1.007 2.447-.672.673-1.488 1.009-2.45 1.009h-42.694c-1.968 0-3.72-.48-5.256-1.44a13.727 13.727 0 0 1-3.925-3.708c-1.08-1.512-1.907-3.204-2.484-5.076-.576-1.872-.864-3.696-.864-5.471zm122.117 12.239c0 .959-.336 1.775-1.008 2.447-.673.673-1.489 1.009-2.448 1.009-.96 0-1.775-.336-2.448-1.009-.672-.672-1.008-1.488-1.008-2.447v-1.657c-.049-1.44-.385-2.628-1.008-3.564-.623-.936-1.367-1.668-2.231-2.195a8.36 8.36 0 0 0-2.808-1.08c-1.008-.193-1.92-.29-2.736-.29h-24.984a18.23 18.23 0 0 1-4.5-.575 17.08 17.08 0 0 1-4.286-1.727v11.088c0 .959-.335 1.775-1.007 2.447-.672.673-1.488 1.009-2.449 1.009-.96 0-1.775-.336-2.447-1.009-.671-.672-1.007-1.488-1.007-2.447V3.456c0-.96.336-1.776 1.007-2.448C208.82.336 209.636 0 210.595 0c.961 0 1.777.336 2.449 1.008.672.672 1.007 1.488 1.007 2.448V4.68c0 1.536.3 2.796.901 3.78.6.984 1.345 1.752 2.233 2.304a8.862 8.862 0 0 0 2.843 1.152c1.008.216 1.944.325 2.808.324h24.985c1.487 0 2.987.192 4.5.576 1.512.384 2.94.96 4.283 1.727V3.456c0-.96.336-1.776 1.008-2.448C258.285.336 259.1 0 260.06 0s1.775.336 2.448 1.008c.672.672 1.008 1.488 1.008 2.448zm63.563 0c0 .959-.336 1.775-1.009 2.447-.672.673-1.488 1.009-2.448 1.009-.959 0-1.775-.336-2.447-1.009-.673-.672-1.009-1.488-1.009-2.447v-1.657c-.048-1.44-.384-2.628-1.007-3.564-.624-.936-1.367-1.668-2.232-2.195a8.36 8.36 0 0 0-2.808-1.08c-1.008-.193-1.92-.29-2.735-.29h-24.985a18.23 18.23 0 0 1-4.5-.575 17.08 17.08 0 0 1-4.285-1.727v11.088c0 .959-.336 1.775-1.008 2.447-.671.673-1.487 1.009-2.448 1.009-.96 0-1.775-.336-2.447-1.009-.672-.672-1.007-1.488-1.007-2.447V3.456c0-.96.335-1.776 1.007-2.448C272.383.336 273.198 0 274.158 0s1.777.336 2.448 1.008c.672.672 1.008 1.488 1.008 2.448V4.68c0 1.536.3 2.796.9 3.78.601.984 1.346 1.752 2.233 2.304a8.862 8.862 0 0 0 2.844 1.152c1.007.216 1.943.325 2.808.324h24.984c1.487 0 2.987.192 4.5.576 1.512.384 2.94.96 4.283 1.727V3.456c0-.96.336-1.776 1.009-2.448C321.847.336 322.663 0 323.622 0c.96 0 1.776.336 2.448 1.008.673.672 1.009 1.488 1.009 2.448zm14.17 0c0 .959-.336 1.775-1.007 2.447-.672.673-1.488 1.009-2.45 1.009-.959 0-1.775-.336-2.447-1.009-.672-.672-1.009-1.488-1.009-2.447V3.456c0-.96.337-1.776 1.009-2.448C336.017.336 336.833 0 337.793 0s1.777.336 2.449 1.008c.671.672 1.007 1.488 1.007 2.448zm13.99-15.696h16.633c2.496 0 4.944-.324 7.345-.972 2.4-.648 4.74-1.5 7.019-2.556a54.158 54.158 0 0 0 6.55-3.6 131.965 131.965 0 0 0 6.014-4.104C399.616.336 400.432 0 401.247 0c.96 0 1.776.336 2.448 1.008.673.672 1.009 1.488 1.009 2.448 0 .672-.192 1.26-.576 1.764-.384.504-.84.948-1.369 1.332a175.68 175.68 0 0 1-3.6 2.7 58.633 58.633 0 0 1-3.455 2.34 72.849 72.849 0 0 1-3.564 2.088 84.977 84.977 0 0 1-3.924 2.017c1.391.67 2.7 1.342 3.924 2.015a72.913 72.913 0 0 1 3.564 2.088 58.76 58.76 0 0 1 3.455 2.34c1.152.84 2.352 1.74 3.6 2.7.529.383.985.827 1.37 1.331.383.504.575 1.092.575 1.765 0 .959-.336 1.775-1.009 2.447-.672.673-1.488 1.009-2.448 1.009-.815 0-1.631-.336-2.447-1.009a123.12 123.12 0 0 0-6.083-4.176 55.538 55.538 0 0 0-6.516-3.6 40.437 40.437 0 0 0-6.984-2.52 29.071 29.071 0 0 0-7.345-.936H355.24v8.785c0 .959-.336 1.775-1.008 2.447-.671.673-1.463 1.009-2.376 1.009-.96 0-1.775-.336-2.448-1.009-.672-.672-1.008-1.488-1.008-2.447V3.456c0-.96.336-1.776 1.008-2.448C350.081.336 350.873 0 351.784 0c.96 0 1.777.336 2.448 1.008.672.672 1.008 1.488 1.008 2.448zm108.204 0c.96 0 1.775.336 2.447 1.008.672.672 1.007 1.488 1.007 2.449 0 .96-.335 1.775-1.007 2.446-.672.672-1.487 1.008-2.447 1.008h-35.857c-.96 0-1.775-.336-2.448-1.008-.672-.671-1.008-1.487-1.008-2.446 0-.961.336-1.777 1.008-2.45.673-.67 1.489-1.006 2.448-1.007zm-36.648-5.328c-1.68 0-3.036.3-4.068.9-1.032.6-1.848 1.332-2.448 2.196a7.71 7.71 0 0 0-1.224 2.844c-.216 1.032-.324 1.98-.324 2.845 0 .863.108 1.81.324 2.842a7.709 7.709 0 0 0 1.224 2.844c.6.865 1.416 1.597 2.448 2.196 1.032.6 2.388.9 4.068.9h39.672c.96 0 1.775.336 2.447 1.009.673.672 1.009 1.488 1.009 2.448 0 .959-.336 1.775-1.009 2.447-.672.673-1.488 1.009-2.447 1.009H424.49c-1.967 0-3.72-.48-5.256-1.44a13.727 13.727 0 0 1-3.924-3.708c-1.08-1.512-1.908-3.204-2.484-5.076-.576-1.872-.865-3.696-.865-5.471 0-1.825.3-3.662.901-5.51a16.845 16.845 0 0 1 2.628-5.04 14.341 14.341 0 0 1 4.176-3.707c1.633-.96 3.48-1.44 5.545-1.44h41.256c.96 0 1.775.336 2.447 1.008.673.672 1.009 1.488 1.009 2.448s-.336 1.775-1.009 2.448c-.672.672-1.488 1.008-2.447 1.008zm106.581 21.024c0 .959-.337 1.775-1.009 2.447-.672.673-1.488 1.009-2.448 1.009-.48 0-.912-.096-1.296-.288a5.248 5.248 0 0 1-1.079-.72 6.983 6.983 0 0 1-.648-.72c-1.969-2.448-3.997-4.369-6.084-5.76a25.6 25.6 0 0 0-6.588-3.168c-2.304-.72-4.74-1.164-7.308-1.332a126.32 126.32 0 0 0-8.244-.253h-14.689v8.785c0 .959-.348 1.775-1.043 2.447-.696.673-1.5 1.009-2.413 1.009-.96 0-1.775-.336-2.448-1.009-.672-.672-1.008-1.488-1.008-2.447V9.432c0-1.44.264-2.736.792-3.888.528-1.152 1.2-2.136 2.016-2.952a8.967 8.967 0 0 1 2.808-1.908C483.743.228 484.799 0 485.855 0h37.585a9.76 9.76 0 0 1 3.815.755 10.43 10.43 0 0 1 3.169 2.053 9.693 9.693 0 0 1 2.16 3.024c.528 1.152.792 2.4.792 3.743 0 .961-.337 1.777-1.009 2.45-.672.67-1.488 1.007-2.448 1.007s-1.775-.336-2.447-1.008c-.673-.672-1.009-1.488-1.009-2.449 0-.719-.252-1.319-.756-1.8a3.141 3.141 0 0 0-1.764-.863h-37.727c-.624 0-1.128.156-1.512.468-.384.312-.624.684-.72 1.116v3.744h14.688c4.223 0 8.039.24 11.447.72 3.408.48 6.492 1.26 9.252 2.34 2.76 1.08 5.233 2.497 7.417 4.249 2.184 1.752 4.14 3.899 5.867 6.442.48.624.72 1.272.72 1.945z" font-family="Space Age" font-size="72" style="-inkscape-font-specification:Space Age"/>
    </g>
</svg>
