<svg xmlns="http://www.w3.org/2000/svg" width="533.305" height="31.392">
    <g fill="#e9e9e9" font-family="Space Age" font-size="72" font-weight="400" letter-spacing="0" style="text-align:start;line-height:125%;-inkscape-font-specification:Borg Nine" word-spacing="0">
        <path d="M56.377 27.936c0 .96-.336 1.775-1.008 2.448-.673.672-1.488 1.008-2.448 1.008s-1.775-.336-2.448-1.008c-.672-.673-1.008-1.488-1.008-2.448v-8.785H6.913v8.785c0 .96-.336 1.775-1.008 2.448-.671.672-1.488 1.008-2.449 1.008-.96 0-1.775-.336-2.447-1.008C.336 29.71 0 28.896 0 27.936V3.456c0-.96.336-1.775 1.009-2.447C1.68.336 2.497 0 3.456 0c.961 0 1.778.336 2.45 1.009.67.672 1.007 1.488 1.007 2.447v8.785h42.552V3.456c0-.96.336-1.775 1.008-2.447C51.146.336 51.962 0 52.921 0c.96 0 1.775.336 2.448 1.009.672.672 1.008 1.488 1.008 2.447zM70.475 27.936c0 .96-.336 1.775-1.007 2.448-.672.672-1.488 1.008-2.45 1.008-.959 0-1.775-.336-2.447-1.008-.672-.673-1.009-1.488-1.009-2.448V3.456c0-.96.337-1.775 1.009-2.447C65.243.336 66.059 0 67.019 0s1.777.336 2.449 1.009c.671.672 1.007 1.488 1.007 2.447zM130.619 0c.96 0 1.775.336 2.447 1.009.673.672 1.009 1.488 1.009 2.447 0 .96-.336 1.776-1.009 2.448-.672.672-1.488 1.009-2.447 1.009h-21.314v21.023c0 .96-.336 1.775-1.007 2.448-.672.672-1.488 1.008-2.45 1.008-.959 0-1.774-.336-2.446-1.008-.671-.673-1.007-1.488-1.007-2.448V6.913H80.793c-.864-.097-1.608-.47-2.232-1.117-.624-.647-.936-1.427-.936-2.34 0-.96.336-1.775 1.009-2.447C79.306.336 80.122 0 81.08 0zM141.328 15.697c0-1.825.3-3.661.901-5.51a16.845 16.845 0 0 1 2.628-5.039 14.341 14.341 0 0 1 4.176-3.708c1.632-.96 3.48-1.44 5.545-1.44h41.974c.96 0 1.777.336 2.449 1.009.671.672 1.007 1.488 1.007 2.447 0 .96-.336 1.776-1.007 2.448-.672.672-1.488 1.009-2.449 1.009h-40.463c-1.68 0-3.036.3-4.068.9-1.032.6-1.848 1.331-2.448 2.196a7.71 7.71 0 0 0-1.224 2.844c-.216 1.032-.324 1.98-.324 2.844 0 .863.108 1.81.324 2.842a7.709 7.709 0 0 0 1.224 2.845c.6.864 1.416 1.596 2.448 2.196 1.032.6 2.388.9 4.068.9h40.463c.96 0 1.777.336 2.449 1.008.671.673 1.007 1.489 1.007 2.448 0 .96-.336 1.775-1.007 2.448-.672.672-1.488 1.008-2.449 1.008h-42.695c-1.967 0-3.72-.48-5.256-1.44a13.727 13.727 0 0 1-3.924-3.708c-1.08-1.512-1.908-3.203-2.484-5.076-.577-1.872-.865-3.695-.865-5.47zM263.518 27.936c0 .96-.336 1.775-1.008 2.448-.673.672-1.489 1.008-2.448 1.008-.96 0-1.776-.336-2.448-1.008-.672-.673-1.009-1.488-1.009-2.448v-8.785h-42.552v8.785c0 .96-.336 1.775-1.007 2.448-.672.672-1.488 1.008-2.45 1.008-.959 0-1.774-.336-2.447-1.008-.672-.673-1.008-1.488-1.008-2.448V3.456c0-.96.336-1.775 1.008-2.447C208.822.336 209.637 0 210.597 0s1.777.336 2.449 1.009c.671.672 1.007 1.488 1.007 2.447v8.785h42.552V3.456c0-.96.337-1.775 1.009-2.447C258.286.336 259.102 0 260.062 0s1.775.336 2.448 1.009c.672.672 1.008 1.488 1.008 2.447zM327.08 27.936c0 .96-.336 1.775-1.008 2.448-.672.672-1.488 1.008-2.448 1.008s-1.775-.336-2.447-1.008c-.673-.673-1.01-1.488-1.009-2.448v-8.785h-42.552v8.785c0 .96-.336 1.775-1.008 2.448-.671.672-1.488 1.008-2.449 1.008-.96 0-1.775-.336-2.447-1.008-.673-.673-1.009-1.488-1.009-2.448V3.456c0-.96.336-1.775 1.009-2.447C272.384.336 273.2 0 274.159 0c.961 0 1.778.336 2.45 1.009.67.672 1.007 1.488 1.007 2.447v8.785h42.552V3.456c0-.96.336-1.775 1.009-2.447C321.849.336 322.665 0 323.624 0c.96 0 1.776.336 2.448 1.009.672.672 1.009 1.488 1.009 2.447zM341.178 27.936c0 .96-.336 1.775-1.007 2.448-.672.672-1.488 1.008-2.45 1.008-.959 0-1.774-.336-2.447-1.008-.672-.673-1.008-1.488-1.008-2.448V3.456c0-.96.336-1.775 1.008-2.447C335.947.336 336.762 0 337.722 0s1.777.336 2.449 1.009c.671.672 1.007 1.488 1.007 2.447zM355.168 12.241h16.634c2.496 0 4.944-.324 7.344-.972 2.4-.648 4.74-1.5 7.019-2.557a54.159 54.159 0 0 0 6.551-3.6 131.952 131.952 0 0 0 6.013-4.103C399.545.336 400.361 0 401.177 0c.96 0 1.775.336 2.448 1.009.672.672 1.008 1.488 1.008 2.447 0 .673-.192 1.26-.576 1.765a6.53 6.53 0 0 1-1.369 1.331c-1.248.96-2.448 1.86-3.6 2.7a58.625 58.625 0 0 1-3.455 2.34 72.84 72.84 0 0 1-3.564 2.088 84.978 84.978 0 0 1-3.924 2.017c1.391.671 2.7 1.343 3.924 2.015a72.913 72.913 0 0 1 3.564 2.089c1.151.72 2.303 1.5 3.455 2.34 1.152.84 2.352 1.74 3.6 2.7.53.383.986.827 1.37 1.33.383.505.575 1.093.575 1.765 0 .96-.336 1.775-1.008 2.448-.673.672-1.489 1.008-2.448 1.008-.816 0-1.632-.336-2.448-1.008a123.125 123.125 0 0 0-6.083-4.176 55.539 55.539 0 0 0-6.516-3.6 40.437 40.437 0 0 0-6.984-2.52 29.07 29.07 0 0 0-7.344-.937h-16.634v8.785c0 .96-.336 1.775-1.007 2.448-.672.672-1.464 1.008-2.377 1.008-.96 0-1.775-.336-2.447-1.008-.673-.673-1.009-1.488-1.009-2.448V3.456c0-.96.336-1.775 1.009-2.447C350.009.336 350.8 0 351.712 0c.96 0 1.777.336 2.449 1.009.671.672 1.007 1.488 1.007 2.447zM411.89 3.456c0-.96.337-1.775 1.01-2.447C413.571.336 414.386 0 415.346 0h51.049c.96 0 1.775.336 2.448 1.009.672.672 1.008 1.488 1.008 2.447 0 .96-.336 1.776-1.008 2.448-.673.672-1.489 1.009-2.448 1.009h-51.05c-.959 0-1.774-.337-2.447-1.009-.672-.672-1.008-1.488-1.008-2.448zm8.785 27.936c-1.056 0-2.112-.228-3.168-.684a8.966 8.966 0 0 1-2.808-1.908c-.816-.816-1.488-1.8-2.016-2.952-.528-1.153-.792-2.449-.792-3.889v-6.48c0-1.296.372-2.16 1.116-2.59.744-.432 1.909-.648 3.493-.648h48.312c.96 0 1.775.336 2.448 1.007.672.672 1.008 1.488 1.008 2.45 0 .959-.336 1.774-1.008 2.446-.673.672-1.489 1.007-2.448 1.007h-46.009v3.53c0 .48.204.9.612 1.26.408.359.948.539 1.62.539h45.361c.96 0 1.775.336 2.448 1.008.672.673 1.008 1.489 1.008 2.448 0 .96-.336 1.775-1.008 2.448-.673.672-1.489 1.008-2.448 1.008zM523.296 19.151c1.297.816 2.617 1.692 3.961 2.628a82.027 82.027 0 0 1 4.103 3.061c.53.384.985.828 1.37 1.332.383.504.575 1.092.575 1.764 0 .96-.336 1.775-1.009 2.448-.672.672-1.488 1.008-2.447 1.008-.816 0-1.632-.336-2.448-1.008a134.156 134.156 0 0 0-6.048-4.176 54.665 54.665 0 0 0-6.445-3.6 39.36 39.36 0 0 0-6.947-2.52 29.637 29.637 0 0 0-7.488-.937h-14.328a2.616 2.616 0 0 0-1.584.865c-.432.48-.648 1.08-.648 1.8v6.12c0 .96-.348 1.775-1.044 2.448-.696.672-1.5 1.008-2.413 1.008-.96 0-1.775-.336-2.447-1.008-.673-.673-1.009-1.488-1.009-2.448v-6.913c0-1.2.228-2.339.684-3.419a9.05 9.05 0 0 1 1.837-2.808 8.403 8.403 0 0 1 2.736-1.872c1.055-.455 2.207-.683 3.455-.683h38.16c.72 0 1.357-.252 1.91-.756.552-.504.828-1.14.828-1.91 0-.719-.276-1.342-.829-1.87-.552-.528-1.188-.792-1.909-.792h-43.416c-.96 0-1.775-.337-2.447-1.009-.673-.672-1.009-1.488-1.009-2.448s.336-1.775 1.009-2.447C478.68.336 479.497 0 480.456 0h43.128c1.345 0 2.605.252 3.78.756a10.108 10.108 0 0 1 3.097 2.052 9.475 9.475 0 0 1 2.088 3.025c.504 1.152.756 2.4.756 3.743 0 1.344-.252 2.593-.756 3.745a9.46 9.46 0 0 1-2.088 3.023 10.116 10.116 0 0 1-3.096 2.052 9.493 9.493 0 0 1-3.78.755z" style="-inkscape-font-specification:Space Age"/>
    </g>
</svg>
